<?xml version="1.0" encoding="iso-8859-1"?>
<!-- Generator: Adobe Illustrator 19.0.0, SVG Export Plug-In . SVG Version: 6.00 Build 0)  -->
<svg version="1.1" id="Layer_1" xmlns="http://www.w3.org/2000/svg" xmlns:xlink="http://www.w3.org/1999/xlink" x="0px" y="0px"
	 viewBox="0 0 493.284 493.284" style="enable-background:new 0 0 493.284 493.284;" xml:space="preserve">
<path style="fill:#B3D665;" d="M246.697,324.348v77.391c0,39.676-32.169,71.853-71.861,71.853l0,0
	c-39.676,0-71.845-32.177-71.845-71.853"/>
<path style="fill:#34992E;" d="M174.836,493.284c-50.475,0-91.538-41.07-91.538-91.546c0-10.878,8.814-19.692,19.692-19.692
	s19.692,8.814,19.692,19.692c0,28.759,23.402,52.161,52.153,52.161c28.767,0,52.169-23.402,52.169-52.161v-77.391
	c0-10.878,8.814-19.692,19.692-19.692s19.692,8.814,19.692,19.692v77.391C266.39,452.222,225.319,493.284,174.836,493.284z"/>
<path style="fill:#B3D665;" d="M246.571,324.348v77.391c0,39.676,32.177,71.853,71.869,71.853l0,0
	c39.668,0,71.853-32.177,71.853-71.853"/>
<path style="fill:#34992E;" d="M318.44,493.284c-50.483,0-91.561-41.07-91.561-91.546v-77.391c0-10.878,8.814-19.692,19.692-19.692
	c10.878,0,19.692,8.814,19.692,19.692v77.391c0,28.759,23.402,52.161,52.177,52.161c28.767,0,52.161-23.402,52.161-52.161
	c0-10.878,8.814-19.692,19.692-19.692c10.878,0,19.692,8.814,19.692,19.692C409.986,452.222,368.924,493.284,318.44,493.284z"/>
<path style="fill:#B3D665;" d="M394.846,167.904c0,81.865-66.339,148.212-148.212,148.212c-81.857,0-148.196-66.355-148.196-148.212
	S164.777,19.692,246.634,19.692C328.515,19.692,394.846,86.04,394.846,167.904z"/>
<path style="fill:#94CC29;" d="M246.634,19.692c81.881,0,148.212,66.355,148.212,148.212s-66.332,148.212-148.212,148.212"/>
<g>
	<path style="fill:#34992E;" d="M246.634,335.809c-92.585,0-167.889-75.319-167.889-167.904S154.049,0,246.634,0
		s167.905,75.319,167.905,167.904S339.22,335.809,246.634,335.809z M246.634,39.385c-70.861,0-128.504,57.651-128.504,128.52
		s57.643,128.52,128.504,128.52c70.869,0,128.52-57.651,128.52-128.52S317.503,39.385,246.634,39.385z"/>
	<circle style="fill:#34992E;" cx="214.638" cy="162.619" r="8.373"/>
	<circle style="fill:#34992E;" cx="246.642" cy="162.619" r="8.373"/>
	<circle style="fill:#34992E;" cx="278.638" cy="162.619" r="8.365"/>
</g>
<g>
</g>
<g>
</g>
<g>
</g>
<g>
</g>
<g>
</g>
<g>
</g>
<g>
</g>
<g>
</g>
<g>
</g>
<g>
</g>
<g>
</g>
<g>
</g>
<g>
</g>
<g>
</g>
<g>
</g>
</svg>
